<?xml version="1.0"?>
<svg xmlns="http://www.w3.org/2000/svg" xmlns:xlink="http://www.w3.org/1999/xlink" xmlns:svgjs="http://svgjs.com/svgjs" version="1.1" width="512" height="512" x="0" y="0" viewBox="0 0 512 512" style="enable-background:new 0 0 512 512" xml:space="preserve" class=""><g>
<g xmlns="http://www.w3.org/2000/svg">
	<g>
		<polygon points="499.428,107 179.73,0.765 177.427,0 129.284,0 9.284,107 0,107 0,187 70,187 70,107 54.361,107 140,30.638     140,82 90,82 90,182 220,182 220,82 170,82 170,30 172.573,30 404.292,107 240,107 240,167 512,167 512,107   " fill="#cfc7bc" data-original="#000000" style="" class=""/>
	</g>
</g>
<g xmlns="http://www.w3.org/2000/svg">
	<g>
		<rect x="264" y="384" width="248" height="60" fill="#cfc7bc" data-original="#000000" style="" class=""/>
	</g>
</g>
<g xmlns="http://www.w3.org/2000/svg">
	<g>
		<path d="M414.934,320.62c10.08-7.974,16.566-20.3,16.566-34.12h-30c0,7.444-6.056,13.5-13.5,13.5c-7.444,0-13.5-6.056-13.5-13.5    c0-7.444,6.056-13.5,13.5-13.5h15v-36h1.213L433,208.213V187h-90v21.213L371.787,237H373v8.666    c-16.617,6.124-28.5,22.117-28.5,40.834c0,13.82,6.486,26.147,16.566,34.12L303.95,364h49.601L388,337.836L422.449,364h49.601    L414.934,320.62z" fill="#cfc7bc" data-original="#000000" style="" class=""/>
	</g>
</g>
<g xmlns="http://www.w3.org/2000/svg">
	<g>
		<path d="M168.787,212L120,260.787V212H90v300h130V212H168.787z M120,312h48.787L120,360.787V312z M120,412h48.787L120,460.787V412    z M190,482h-48.787L190,433.213V482z M190,382h-48.787L190,333.213V382z M190,282h-48.787L190,233.213V282z" fill="#cfc7bc" data-original="#000000" style="" class=""/>
	</g>
</g>
<g xmlns="http://www.w3.org/2000/svg">
</g>
<g xmlns="http://www.w3.org/2000/svg">
</g>
<g xmlns="http://www.w3.org/2000/svg">
</g>
<g xmlns="http://www.w3.org/2000/svg">
</g>
<g xmlns="http://www.w3.org/2000/svg">
</g>
<g xmlns="http://www.w3.org/2000/svg">
</g>
<g xmlns="http://www.w3.org/2000/svg">
</g>
<g xmlns="http://www.w3.org/2000/svg">
</g>
<g xmlns="http://www.w3.org/2000/svg">
</g>
<g xmlns="http://www.w3.org/2000/svg">
</g>
<g xmlns="http://www.w3.org/2000/svg">
</g>
<g xmlns="http://www.w3.org/2000/svg">
</g>
<g xmlns="http://www.w3.org/2000/svg">
</g>
<g xmlns="http://www.w3.org/2000/svg">
</g>
<g xmlns="http://www.w3.org/2000/svg">
</g>
</g></svg>
